<?xml version="1.0" encoding="utf-8"?>
<!-- Generator: Adobe Illustrator 19.2.1, SVG Export Plug-In . SVG Version: 6.00 Build 0)  -->
<svg version="1.1" id="pagekit-logo" xmlns="http://www.w3.org/2000/svg" xmlns:xlink="http://www.w3.org/1999/xlink" x="0px"
	 y="0px" viewBox="0 0 300 100" style="enable-background:new 0 0 300 100;" xml:space="preserve">
<style type="text/css">
	.st0{fill:#222222;}
	.st1{fill:#BBBBBB;}
</style>
<g>
	<g>
		<path class="st0" d="M74.8,57.8c0,0.4-1.8,1.7-4.9,1.7h-1.1V48.8c-2.7,1.3-5.7,2.8-9.1,4.3c-0.2,0.6-0.8,1.2-1.4,1.3l-2.5-7.7
			c0.8-0.1,1.9-0.3,3.2-0.5V19.2h-2.7l-0.4-1.3h15.2l3.2-3.9c0,0,3.6,2.6,5.8,4.5c-0.1,0.5-0.6,0.8-1.3,0.8h-3.8v24
			c1.7-0.3,3.4-0.7,5.1-1.1l0.1,0.5c-1.4,0.9-3.2,1.9-5.2,3V57.8z M64.8,19.2v7.9h4v-7.9H64.8z M64.8,36.4h4v-7.9h-4V36.4z
			 M68.8,44.4v-6.6h-4v7.3L68.8,44.4z M91.6,38.5c1.7,6.8,5.9,11.9,11.1,13.9l0,0.5c-2.3,0.7-4.1,2.9-4.8,6.3
			c-4.5-4.3-6-10.2-6.9-20c-0.6,7.2-3.6,15.5-16.4,20.2l-0.3-0.4c7.9-6,9.7-13.5,10.1-20.6h-8.5l-0.4-1.3h9c0-0.5,0-1.1,0-1.6v-8.8
			h-7L77,25.4h11.5c1-3.4,1.7-8.1,2-11.4l8.6,1.9c-0.1,0.6-0.7,1-1.8,1c-1.7,2.5-4.7,5.9-7.5,8.4h3l3-4c0,0,3.4,2.7,5.5,4.6
			c-0.1,0.5-0.6,0.8-1.3,0.8h-8.9v8.8c0,0.5,0,1.1,0,1.6h2l3.2-4.3c0,0,3.6,2.9,5.8,4.9c-0.1,0.5-0.7,0.8-1.4,0.8H91.6z M79.4,14.3
			c13,3.3,7.4,13.2,2.4,8.9c-0.1-3-1.4-6.4-2.9-8.7L79.4,14.3z"/>
		<path class="st0" d="M122.2,48.3c-0.3,0.5-0.7,0.8-1.9,0.6c-3.6,3.5-9.3,7.1-15.6,9l-0.3-0.5c4.3-3.7,8.3-9.6,10.1-13.7
			L122.2,48.3z M133.7,33c18.8,1.8,15.2,15.3,8.4,11.6c-0.7-1.8-1.9-3.8-3.3-5.6c-2.4,0.6-5.1,1.2-8.4,1.8v11.9
			c0,4.2-1.1,6.7-8.3,7.2c-0.1-2-0.2-3.4-0.9-4.3c-0.6-0.8-1.3-1.6-3.6-2v-0.5c0,0,3.8,0.2,4.8,0.2c0.6,0,0.8-0.3,0.8-0.8V42.2
			c-3.4,0.6-7.2,1.3-11.1,1.9c-0.4,0.5-0.8,0.9-1.2,1.1l-3.2-7.1c0,0,1.7-0.2,2.6-0.5c5-1.2,11.7-4.4,17.2-7.7
			c-3.7,1-8.4,2.1-13.6,3.3c-0.3,0.4-0.6,0.6-1,0.8l-3.2-7.1c0,0,1.2-0.1,1.9-0.4c2.8-0.6,6.5-2.8,9.2-4.8c-5.1,0.2-10.3,0.3-15,0.2
			l0-0.7c11.5-1.6,26.6-4.9,34.3-7.6l6.4,6.5c-0.6,0.5-1.9,0.5-3.6-0.2c-4.2,0.6-9.5,1-15.2,1.4l3.6,2c-0.2,0.5-0.9,0.8-1.9,0.5
			c-3.2,1.4-8.8,2.9-13.6,3.8c4,0,9.6,0,15.4,0c2.3-1.5,4.1-3,5.3-4.3l7,5.3c-0.3,0.4-1.1,0.7-2.3,0.4c-5.2,3-16.4,7-25.9,9.4
			c5.8-0.1,14-0.3,22.8-0.6c-1.4-1.7-3-3.3-4.6-4.5L133.7,33z M132.5,44.3c19.7,2.2,15.6,16.5,8.4,12.4c-1.5-4.4-5.2-9.1-8.8-12
			L132.5,44.3z"/>
		<path class="st0" d="M196.4,51.9c1.9,3.2,2.1,4.9,1.2,5.9c-2.5,2.5-6.9,0.4-9.2-1.5c-2.1-1.8-3.7-3.7-5.2-5.9
			c-3.7,3.1-8.3,5.7-13.8,7.4l-0.3-0.5c4.8-2.9,8.8-6.7,12-10.8c-2.2-4.6-3.3-9.8-3.9-15.5h-7.5v6.4c2.5-0.3,5.2-0.7,7.8-1.1l0,0.5
			c-2,1.1-4.6,2.4-7.9,3.9v10.8c0,4.5-1.2,7.6-8.5,8.1c-0.1-2.2-0.4-3.9-1.2-4.9c-0.8-1-1.9-1.8-4.7-2.3v-0.6c0,0,5.5,0.3,6.7,0.3
			c0.8,0,1-0.4,1-1v-7.6c-1.9,0.8-3.9,1.6-6.1,2.4c-0.3,0.6-0.9,1.1-1.4,1.2l-2.9-7.8c2.1-0.2,5.9-0.6,10.5-1.2v-7.3h-10l-0.4-1.3
			h10.4v-6.9c-3.4,0.4-7,0.8-10.4,1l-0.1-0.5c6.3-2.2,14-6.1,17.9-8.9l6.3,5.5c0-1.6,0-3.2,0-4.8l8.5,0.8c0,0.6-0.4,1.2-1.7,1.4
			c-0.1,4.3,0,8.5,0.3,12.5h4.8l3.3-3.9c-1,0.1-2.2-0.1-3.3-1c0-2.8-1.4-5.9-3-7.9l0.4-0.2c10.8,1.3,9.8,8,6.2,9
			c0.9,0.6,4,2.9,6.1,4.6c-0.1,0.5-0.7,0.8-1.3,0.8h-13.1c0.3,3.1,0.9,6,1.7,8.5c1.3-2.5,2.4-5.1,3.2-7.6l8,3.6
			c-0.3,0.5-0.8,0.9-1.9,0.7c-1.6,3.1-3.7,6.3-6.4,9.3c1.1,1.6,2.4,3,3.9,4.2c0.7,0.6,1.1,0.6,1.6-0.1c0.9-1.3,2.4-4,3.4-6.1
			l0.4,0.1L196.4,51.9z M176.9,29.6c-0.3-2.8-0.4-5.7-0.5-8.7c-0.7,0.1-1.5,0-2.6-0.3c-1.2,0.3-2.7,0.7-4.3,1v8H176.9z"/>
		<path class="st0" d="M217.4,16.5c-0.2,0.7-0.8,1.1-1.9,1.1c-1.3,3.6-2.8,6.9-4.5,9.8l2.7,1c-0.1,0.5-0.5,0.8-1.5,1v28.2
			c-0.1,0.5-2.9,1.9-5.6,1.9h-1.3V35.2c-1.4,1.6-3,3-4.7,4.3l-0.5-0.3c3.2-6.3,6.4-16.1,7.7-25.3L217.4,16.5z M219.7,14.7
			c13.3,1.4,9.4,11.2,4.3,8.5c-0.3,0.2-0.7,0.3-1.3,0.4v33.8c0,0.6-2.8,2.1-5.5,2.1H216V21.2l7.2,0.7c-0.8-2.5-2.4-5.1-3.9-6.9
			L219.7,14.7z M245.7,21c-0.3,0.4-1,0.8-1.9,1.1v30.2c0,4.3-1,6.7-8.3,7.4c-0.1-2.1-0.4-3.7-1.3-4.6c-0.8-1-1.9-1.7-4.6-2.2v-0.6
			c0,0,5.5,0.3,6.6,0.3c0.8,0,1.1-0.3,1.1-1V21h-7.4l-0.4-1.3h7.3l2.9-3.3L245.7,21z"/>
	</g>
</g>
<g>
	<path class="st1" d="M40.5,93c-4.8,0-8.7-3.9-8.7-8.7c0-4.8,3.9-8.7,8.7-8.7c3.3,0,6.1,1.8,7.5,4.4c-1.5,0.8-1.6,0.8-3.2,1.6
		c-0.8-1.5-2.5-2.5-4.3-2.5c-2.8,0-5.1,2.3-5.1,5.1c0,2.8,2.3,5.1,5.1,5.1c1.9,0,3.6-1,4.5-2.7c1.6,0.8,1.7,0.9,3.2,1.6
		C46.7,91.2,43.9,93,40.5,93z"/>
	<path class="st1" d="M72.5,93.2c-4.9,0-8.9-4-8.9-8.9c0-4.9,4-8.9,8.9-8.9c4.9,0,8.9,4,8.9,8.9C81.4,89.3,77.4,93.2,72.5,93.2z
		 M67.3,84.4c0,2.9,2.4,5.2,5.2,5.2s5.2-2.4,5.2-5.2s-2.3-5.3-5.2-5.3S67.3,81.5,67.3,84.4z"/>
	<path class="st1" d="M100.9,81.2V93h-3.3V75.8h4.3l7.7,10.7V75.8h3.2V93h-3.2L100.9,81.2z"/>
	<path class="st1" d="M134.5,79h-5.4v-3.1h14.6v3.2h-5.4V93h-3.8V79z"/>
	<path class="st1" d="M158.6,93l7.8-17.1h3.8l7.7,17.1h-3.6l-1.7-3.8h-8.7l-1.8,3.8H158.6z M168.3,79.1l-2.9,6.6h5.7L168.3,79.1
		L168.3,79.1z"/>
	<path class="st1" d="M201.8,93c-4.8,0-8.7-3.9-8.7-8.7c0-4.8,3.9-8.7,8.7-8.7c3.3,0,6.1,1.8,7.5,4.4c-1.5,0.8-1.6,0.8-3.2,1.6
		c-0.8-1.5-2.5-2.5-4.3-2.5c-2.8,0-5.1,2.3-5.1,5.1c0,2.8,2.3,5.1,5.1,5.1c1.9,0,3.6-1,4.5-2.7c1.6,0.8,1.7,0.9,3.2,1.6
		C208,91.2,205.2,93,201.8,93z"/>
	<path class="st1" d="M230.5,79h-5.4v-3.1h14.6v3.2h-5.4V93h-3.8V79z"/>
	<path class="st1" d="M258.8,87.9c0.4,2.3,2.4,2.6,3.8,2.6c1.3,0,3.3-0.4,3.3-2.1c0-3.6-10.2-1.3-10.2-7.7c0-3.5,3.3-5.2,6.4-5.2
		c3.6,0,6.9,1.6,6.9,5.5l-3.6-0.5c-0.5-2-2.2-2.1-3.4-2.1c-1.2,0-2.6,0.5-2.6,1.9c0,1.3,0.8,1.6,5.1,2.6c1.3,0.3,5.1,1.1,5.1,5
		c0,3.1-2.4,5.5-7.1,5.5c-3.8,0-7.3-1.9-7.3-6.1L258.8,87.9z"/>
</g>
</svg>
