<?xml version="1.0" encoding="utf-8"?>
<!-- Generator: Adobe Illustrator 19.2.1, SVG Export Plug-In . SVG Version: 6.00 Build 0)  -->
<svg version="1.1" id="pagekit-logo" xmlns="http://www.w3.org/2000/svg" xmlns:xlink="http://www.w3.org/1999/xlink" x="0px"
	 y="0px" viewBox="0 0 300 100" style="enable-background:new 0 0 300 100;" xml:space="preserve">
<style type="text/css">
	.st0{fill:#222222;}
	.st1{fill:#BBBBBB;}
</style>
<g>
	<g>
		<path class="st0" d="M84.3,16c-0.2,0.7-0.9,1-2.6,1.2c4.4,6,13.7,8.9,20.4,10.4l0,0.8c-3.1,0.9-5.1,4.3-5.6,7.1
			c-6.8-3.7-12.9-9.4-15.6-17.7c-4.8,7.8-15.6,15.6-25.3,19.3l-0.3-0.5c8.2-5.7,16.8-16.3,18.5-23.3L84.3,16z M94,50.8
			c0,0,4.4,3.5,7,5.8c-0.1,0.5-0.7,0.8-1.4,0.8H56.5L56.1,56h7V35.8l8.5,0.7c-0.1,0.7-0.4,1.2-1.7,1.4V56h5.6V26.7l9,0.8
			c-0.1,0.7-0.4,1.2-1.8,1.4v11.3h2.2l3.8-5.1c0,0,4.3,3.4,6.9,5.7c-0.1,0.5-0.7,0.8-1.4,0.8H82.7V56h7.4L94,50.8z"/>
		<path class="st0" d="M142.6,49c0,0,4.3,3.7,6.7,6.1c-0.1,0.5-0.7,0.8-1.4,0.8h-43.1l-0.4-1.3h13.7V14.4l8.4,0.8
			c-0.1,0.7-0.4,1.1-1.5,1.2v38.2h3.6V14.4l8.4,0.8c-0.1,0.7-0.4,1.1-1.5,1.2V43c1.9-6.6,3.7-14.2,4.8-19.7l9.1,2.5
			c-0.2,0.6-0.8,1.1-2,1.1c-2.5,5.4-7.1,13.6-11.9,20.2v7.5h3.5L142.6,49z M106.9,23.3c15.6,12.6,11,27.5,4.6,21.4
			c-0.3-6.8-2.8-14.8-5.2-21.1L106.9,23.3z"/>
		<path class="st0" d="M189.6,26.2c-1.4,7.9-4.5,14.8-9.8,20.3c5.3,2.9,11.4,4.8,17.8,6l-0.1,0.6c-3.5,0.5-6,2.7-7.2,6.2
			c-6-2.1-11.1-4.8-15.4-8.6c-5.6,4-13.1,6.9-22.7,8.5l-0.2-0.5c8.5-2.9,14.9-6.8,19.5-11.5c-4.2-5.1-7.3-11.9-8.9-21.1h-9.7
			l-0.4-1.3h33.7l3.9-5.3c0,0,4.4,3.5,6.9,5.9c-0.1,0.5-0.7,0.8-1.4,0.8H189.6z M163.3,26.2c2.1,7.6,6.2,13.1,11.5,17.1
			c3.6-5,5.6-10.8,6.4-17.1H163.3z M169,13.8c16.8,0.8,11.1,13.9,4.3,9.3c-0.6-3.3-2.5-6.8-4.6-9.1L169,13.8z"/>
		<path class="st0" d="M214.2,28.6c-0.2,0.4-0.6,0.8-1.5,1v28.4c-0.1,0.3-3.1,1.3-5.5,1.3h-1.2V34.7c-1.9,1.8-3.8,3.3-6,4.7
			l-0.5-0.4c4.1-6,8.2-15.8,10-25.3l9.6,3c-0.2,0.6-0.8,1.1-2,1c-1.5,3.8-3.3,7.1-5.3,10L214.2,28.6z M243.1,51
			c1.9,0.8,2.5,1.6,2.5,2.8c0,3.1-2.6,4.5-11.9,4.5h-5.1c-5.8,0-7.9-1.2-7.9-6.4V39.7c-2.1,0.7-4.2,1.4-6.3,2l-0.3-0.5
			c2.3-1.2,4.5-2.6,6.6-4.2V14.7l8.4,0.9c0,0.7-0.5,1.2-1.7,1.4v14.7c4-3.6,7.4-7.2,9.6-10.4l7.5,5.4c-0.3,0.4-0.9,0.7-2,0.4
			c-3.7,3.3-9,6.9-15.1,9.8v13c0,1.3,0.7,1.7,2.4,1.7h4.6c1.4,0,2.7,0,3.5-0.1c0.7,0,1.2-0.2,1.6-0.8c0.8-1.1,1.8-4,2.9-7.6h0.5
			L243.1,51z"/>
	</g>
</g>
<g>
	<path class="st1" d="M58.5,92.7c-4.8,0-8.7-3.9-8.7-8.7c0-4.8,3.9-8.7,8.7-8.7c3.3,0,6.1,1.8,7.5,4.4c-1.5,0.8-1.6,0.8-3.2,1.6
		c-0.8-1.5-2.5-2.5-4.3-2.5c-2.8,0-5.1,2.3-5.1,5.1c0,2.8,2.3,5.1,5.1,5.1c1.9,0,3.6-1,4.5-2.7c1.6,0.8,1.7,0.9,3.2,1.6
		C64.7,90.9,61.9,92.7,58.5,92.7z"/>
	<path class="st1" d="M97.4,86.2c0,4.6-2.7,6.9-7.3,6.9c-4.6,0-7.3-2.2-7.3-6.9V75.5h3.8v10.7c0,1.9,0.5,3.7,3.5,3.7
		c2.7,0,3.6-1.2,3.6-3.7V75.5h3.8V86.2z"/>
	<path class="st1" d="M114.7,92.6V75.5h3.7v13.9h8.8v3.2H114.7z"/>
	<path class="st1" d="M148.6,78.7h-5.4v-3.1h14.6v3.2h-5.4v13.9h-3.8V78.7z"/>
	<path class="st1" d="M188.9,86.2c0,4.6-2.7,6.9-7.3,6.9c-4.6,0-7.3-2.2-7.3-6.9V75.5h3.8v10.7c0,1.9,0.5,3.7,3.5,3.7
		c2.7,0,3.6-1.2,3.6-3.7V75.5h3.8V86.2z"/>
	<path class="st1" d="M216.2,86.3l4.8,6.4h-4.6l-4.3-6.2h-1.8v6.2h-3.8V75.5h7.7c4.3,0,6,2.7,6,5.5c0,2.3-1.2,4.7-4.1,5.3H216.2z
		 M210.3,78.5v5.2h2.9c1.8,0,3.3-0.4,3.3-2.6c0-2.2-1.5-2.6-3.3-2.6H210.3z"/>
	<path class="st1" d="M241.4,89.5h9.7v3.2h-13.3V75.5h12.5v3.2h-8.9v3.9h7.8v3.3h-7.8V89.5z"/>
</g>
</svg>
