<?xml version="1.0" encoding="utf-8"?>
<!-- Generator: Adobe Illustrator 19.2.1, SVG Export Plug-In . SVG Version: 6.00 Build 0)  -->
<svg version="1.1" id="pagekit-logo" xmlns="http://www.w3.org/2000/svg" xmlns:xlink="http://www.w3.org/1999/xlink" x="0px"
	 y="0px" viewBox="0 0 32 32" style="enable-background:new 0 0 32 32;" xml:space="preserve">
<style type="text/css">
	.st0{fill-rule:evenodd;clip-rule:evenodd;fill:#FF3D00;}
	.st1{fill-rule:evenodd;clip-rule:evenodd;fill:#FFFFFF;}
</style>
<rect class="st0" width="32" height="32"/>
<path class="st1" d="M24.8,13.5c0,0,2.2,3.5-1.1,6.8c0,0-9.3,8.4-17.2,9.7c0,0,11.6-6.5,12.1-16.8c0,0-0.6-8.5,5.1-11
	c0,0,1.5-0.9,1.2,0.3C24.9,2.6,21.1,9.3,24.8,13.5z M15.8,14.8c-1.2,0-2.2-1-2.2-2.2s1-2.2,2.2-2.2s2.2,1,2.2,2.2S17,14.8,15.8,14.8
	z M14,14.9c0,0,3.9,2.2,1.1,6.1c0,0-3.3,4.6-7.4,4.2c0,0,4.6-1.6,2.4-7.6c0,0-2.4-6.4,4.3-9.4C14.4,8.1,11.3,12,14,14.9z"/>
</svg>
