<?xml version="1.0" encoding="utf-8"?>
<!-- Generator: Adobe Illustrator 19.2.1, SVG Export Plug-In . SVG Version: 6.00 Build 0)  -->
<svg version="1.1" id="pagekit-logo" xmlns="http://www.w3.org/2000/svg" xmlns:xlink="http://www.w3.org/1999/xlink" x="0px"
	 y="0px" viewBox="0 0 300 100" style="enable-background:new 0 0 300 100;" xml:space="preserve">
<style type="text/css">
	.st0{fill:#222222;}
	.st1{fill:#BBBBBB;}
</style>
<g>
	<g>
		<path class="st0" d="M92.6,28.3c0,0,4.1,2.9,6.6,5c-0.1,0.5-0.7,0.8-1.4,0.8H67.5V38c0,6-1.1,15.7-12,21.1l-0.3-0.3
			c5-6.4,5.5-14.5,5.5-20.8v-7.9l7.8,2.6h13.7c0.8-3.2,1.6-7.5,2-10.5l8.4,1.8c-0.1,0.6-0.7,1-1.8,1.1c-1.7,2.2-4.6,5.2-7.2,7.6H89
			L92.6,28.3z M94.4,16.2c0,0,4,2.9,6.5,4.9c-0.1,0.5-0.7,0.8-1.4,0.8H56.8l-0.4-1.3h22c-0.5-0.1-1.1-0.4-1.6-0.8
			c-0.2-2.4-1.4-4.8-2.7-6.2l0.3-0.2c11.1-0.5,10.1,6.1,6.3,7.2h10.1L94.4,16.2z M68.4,22.4c14.8,2.7,7.5,13.7,1.8,8.5
			c0-3-1.1-6-2.1-8.3L68.4,22.4z"/>
		<path class="st0" d="M120.5,34.7l6,4.7c-0.3,0.4-0.9,0.8-1.9,1v15.4c0,0.4-3.2,1.8-5.5,1.8H118v-4.3h-5.3v3c0,0.6-2.8,2.1-5.6,2.1
			h-1V35.4L113,38h4.6L120.5,34.7z M118,52V39.3h-5.3V52H118z M120.5,33.1c0,0.6-3.1,2.2-6,2.2h-1V14.4l7.2,2.8H132l3.1-3.4l6.3,4.8
			c-0.3,0.4-0.9,0.9-1.9,1.1v13.3c0,0.4-3.4,1.8-5.8,1.8h-1.2v-4.1h-12V33.1z M120.5,18.5v10.8h12V18.5H120.5z M149.1,39.4
			c-0.3,0.4-0.9,0.8-1.9,1.1v15.8c0,0.4-3.4,1.5-5.7,1.5h-1.2v-4.5h-5.7v3c0,0.6-2.8,2.1-5.6,2.1h-1V35.4l6.8,2.6h4.9l3-3.3
			L149.1,39.4z M140.3,52V39.3h-5.7V52H140.3z"/>
		<path class="st0" d="M196.7,25.7c-0.3,0.4-0.9,0.9-1.9,1.1v15.5c0,0.4-3.7,1.6-6.1,1.6h-1.3v-4h-9.1v16.6c0,0.7-3.2,2.5-6,2.5
			h-1.4V39.8h-9v2.5c0,0.7-3.3,2.4-6.3,2.4h-1.1V21.3l7.9,3h8.5V13.4l9.2,0.9c-0.1,0.7-0.4,1.2-1.8,1.4v8.5h8.7l3.2-3.5L196.7,25.7z
			 M170.8,38.5V25.6h-9v12.9H170.8z M187.3,38.5V25.6h-9.1v12.9H187.3z"/>
		<path class="st0" d="M206.3,27.7c4.4,8.9,3.4,15,0.9,18.6c-1.7,2.7-4.9,2.7-6.6,0.8c-1.3-1.7-1-3.7,0.5-5.2
			c2.4-2.1,4.8-7.7,4.8-14.1L206.3,27.7z M220.2,23c0,0.6-0.5,1.2-1.7,1.3v23.9c0,1.2,0.6,1.5,2.4,1.5h5.4c1.6,0,3.1,0,4-0.1
			c0.8,0,1.3-0.2,1.8-0.8c0.8-1.1,1.8-3.6,3-7.2h0.5l0.2,7.4c2,0.8,2.6,1.6,2.6,3c0,3.2-2.7,4.7-12.8,4.7h-5.8
			c-6.2,0-8.4-1.1-8.4-6.4V22.2L220.2,23z M225.4,27.9c-0.8-4.7-3.5-9.8-6.3-13.4l0.4-0.3C238,18.9,232.4,33.3,225.4,27.9z
			 M238.5,47.2c0-4.9-1.1-12.4-4.8-18l0.4-0.3C254.1,40,243.7,54.5,238.5,47.2z"/>
	</g>
</g>
<g>
	<path class="st1" d="M32.9,75.3h7.7c4.3,0,5.9,2.7,5.9,5.5s-1.6,5.5-5.9,5.5h-4v6.1h-3.8V75.3z M36.6,83.3h2.9
		c1.7,0,3.3-0.4,3.3-2.6c0-2.2-1.6-2.6-3.3-2.6h-2.9V83.3z"/>
	<path class="st1" d="M73,86.1l4.8,6.4h-4.6l-4.3-6.2h-1.8v6.2h-3.8V75.3H71c4.3,0,6,2.7,6,5.5c0,2.3-1.2,4.7-4.1,5.3H73z
		 M67.1,78.2v5.2H70c1.8,0,3.3-0.4,3.3-2.6c0-2.2-1.5-2.6-3.3-2.6H67.1z"/>
	<path class="st1" d="M102.6,92.6c-4.9,0-8.9-4-8.9-8.9c0-4.9,4-8.9,8.9-8.9c4.9,0,8.9,4,8.9,8.9C111.5,88.7,107.5,92.6,102.6,92.6z
		 M97.4,83.8c0,2.9,2.4,5.2,5.2,5.2c2.9,0,5.2-2.4,5.2-5.2s-2.3-5.3-5.2-5.3C99.8,78.5,97.4,80.9,97.4,83.8z"/>
	<path class="st1" d="M128.1,75.3h7.4c4.4,0,7.8,2.8,7.8,8.5c0,5-2.5,8.7-7.8,8.7h-7.4V75.3z M131.9,89.3h3.4c2.2,0,4.3-1.3,4.3-5.1
		c0-3.5-1.2-5.7-4.9-5.7h-2.7V89.3z"/>
	<path class="st1" d="M175,85.9c0,4.6-2.7,6.9-7.3,6.9c-4.6,0-7.3-2.2-7.3-6.9V75.3h3.8v10.7c0,1.9,0.5,3.7,3.5,3.7
		c2.7,0,3.6-1.2,3.6-3.7V75.3h3.8V85.9z"/>
	<path class="st1" d="M200.3,92.5c-4.8,0-8.7-3.9-8.7-8.7c0-4.8,3.9-8.7,8.7-8.7c3.3,0,6.1,1.8,7.5,4.4c-1.5,0.8-1.6,0.8-3.2,1.6
		c-0.8-1.5-2.5-2.5-4.3-2.5c-2.8,0-5.1,2.3-5.1,5.1c0,2.8,2.3,5.1,5.1,5.1c1.9,0,3.6-1,4.5-2.7c1.6,0.8,1.7,0.9,3.2,1.6
		C206.6,90.6,203.7,92.5,200.3,92.5z"/>
	<path class="st1" d="M229.1,78.5h-5.4v-3.1h14.6v3.2h-5.4v13.9h-3.8V78.5z"/>
	<path class="st1" d="M257.4,87.3c0.4,2.3,2.4,2.6,3.8,2.6c1.3,0,3.3-0.4,3.3-2.1c0-3.6-10.2-1.3-10.2-7.7c0-3.5,3.3-5.2,6.4-5.2
		c3.6,0,6.9,1.6,6.9,5.5l-3.6-0.5c-0.5-2-2.2-2.1-3.4-2.1c-1.2,0-2.6,0.5-2.6,1.9c0,1.3,0.8,1.6,5.1,2.6c1.3,0.3,5.1,1.1,5.1,5
		c0,3.1-2.4,5.5-7.1,5.5c-3.8,0-7.3-1.9-7.3-6.1L257.4,87.3z"/>
</g>
</svg>
