<?xml version="1.0" encoding="utf-8"?>
<!-- Generator: Adobe Illustrator 19.2.1, SVG Export Plug-In . SVG Version: 6.00 Build 0)  -->
<svg version="1.1" id="pagekit-logo" xmlns="http://www.w3.org/2000/svg" xmlns:xlink="http://www.w3.org/1999/xlink" x="0px"
	 y="0px" viewBox="0 0 300 100" style="enable-background:new 0 0 300 100;" xml:space="preserve">
<style type="text/css">
	.st0{fill:#222222;}
	.st1{fill:#BBBBBB;}
</style>
<g>
	<g>
		<path class="st0" d="M68.2,34.9c10.9,3.6,5.7,12,1.2,8.1c-0.1-1.7-0.6-3.5-1.2-5.1v19.7c0,0.4-2,1.9-5.2,1.9h-1.2v-18
			c-2,1.7-4.2,3.2-6.5,4.5l-0.4-0.4C60.2,40,64.4,32.4,66,25.9h-9.5l-0.4-1.3h9.6l3.5-3.4l5.7,5.5c-0.4,0.5-1,0.6-2.2,0.8
			C71.6,29.9,70.1,32.4,68.2,34.9L68.2,34.9z M60.8,14.1c13.8,3.1,6,12.8,0.8,7.6c0.2-2.7-0.4-5.4-1.2-7.4L60.8,14.1z M100.3,52.5
			c1.4,0.6,1.6,1.3,1.6,2.4c0,2.3-2.1,3.6-7.8,3.6h-3.2c-4.3,0-5-1.1-5-4.8v-4.2c-2.7,4.3-7.6,7.6-16.3,10l-0.4-0.7
			c15.2-7.2,13.9-17.5,13.9-35.7l8.1,0.7c-0.1,0.7-0.7,1.2-1.7,1.3c-0.1,5.3,0,9.9-0.5,13.9l2.9,0.2V19.6H81.1v23.1
			c0,0.4-1.9,1.5-4.9,1.5h-1.1V15.8l6.5,2.4h10.1l3-3.4l5.5,4.3c-0.3,0.4-0.9,0.8-2,1v22c0,0.3-2,1.5-5.2,1.5h-1.1v-3
			c-0.1,0-0.2,0.1-0.4,0.1v11.4c0,0.6,0.1,0.8,1,0.8h2.2h1.8c0.5,0,0.7-0.1,1-0.6c0.4-0.8,1.2-3.3,2.1-6.1h0.5L100.3,52.5z"/>
		<path class="st0" d="M140.1,19.3c-1.7,2.6-3.8,5.4-5.7,7.3h6l2.6-2.9l5.4,4.1c-0.3,0.3-0.8,0.7-1.6,0.9v18.4c0,0.3-3,1.5-5,1.5h-1
			V30.2c-0.1,0.6-0.7,0.9-1.6,1.1c-0.1,7,0,12.5-1.8,17c15.7,2.5,11.5,14.3,5.2,10.5c-1.1-3.2-3.5-6.7-5.7-9.4
			c-2.3,4.7-6.9,8-16.4,10.4l-0.4-0.8c14.7-5.8,13.7-14.3,13.7-29.7l7,0.6v-2H132v20.3c0,0.6-2.5,2-5,2h-0.9v-9
			c-4.5,11.3-11,16-22.3,18.6l-0.2-0.7c6-2.7,10.3-6.2,13.3-11.9c-0.9,0.2-1.9,0.4-2.9,0.4h-1v-8.1h-0.2c-2.2,4.4-5.1,7.8-8.6,10
			l-0.6-0.4c1.7-3.2,3.2-8,3.9-12.8l5.5,1.6v-5.5l7.5,0.7c-0.1,0.6-0.5,1.1-1.8,1.3V43c0.7-2,1.4-4.2,1.9-6.7l5.4,1.7v-5.8H104
			l-0.4-1.3h3V18.2l6.2,0.6c-0.1,0.6-0.4,1-1.5,1.2v10.9h1.9V14.4l7.2,0.6c0,0.6-0.4,1-1.5,1.2v7.1h0.1l2.7-3.8c0,0,3,2.6,4.8,4.4
			c0,0.2-0.1,0.3-0.2,0.4l6,2.4h0.6c0-2,0-4.9,0-7.3h-7.5L125,18H140l3.3-4.2c0,0,3.7,2.8,6,4.8c-0.1,0.5-0.6,0.8-1.3,0.8H140.1z
			 M122.5,26.9c0,0,1.8,1.5,3.6,3.1v-5.5c-0.2,0.1-0.5,0.1-0.8,0.1H119v6.2h0.7L122.5,26.9z"/>
		<path class="st0" d="M191.2,51.6c0,0,3.8,2.9,6.1,4.9c-0.1,0.5-0.7,0.8-1.3,0.8h-43.3l-0.4-1.3h35.6L191.2,51.6z M160.3,22.2
			c0.4,3.6-0.8,6-2.5,7.2c-1.7,1.1-4.3,0.5-5-1.6c-0.6-2,0.6-3.6,2.3-4.3c1.6-0.9,3.6-3.1,3.5-5.5h0.6c0.4,1,0.7,2,1,2.9h12.6
			c-0.2-0.1-0.3-0.2-0.5-0.3c-0.2-2.3-1.5-4.7-3.1-6l0.3-0.2c10.6-1.3,10.6,4.7,7.4,6.5h11.5l3.3-3.3l5.7,5.4
			c-0.4,0.4-0.8,0.6-1.8,0.6c-1.6,1.5-4.2,3.4-6.4,4.5l0.3,0.2c-0.1,0.5-0.6,0.8-1.3,0.8h-27.7l-0.4-1.3h20.5l3.1-3.9
			c0,0,2.9,2.1,5.1,3.9c0.1-1.5,0.1-3.7,0.1-5.5H160.3z M180.2,52.8v-2.6h-12.5v2.1c0,0.4-2.1,1.5-5.5,1.5h-1.2V31.1l7.2,2.7H180
			l3.3-3.7l5.9,4.6c-0.3,0.4-0.8,0.8-1.9,1v15.7c0,0.3-2.2,1.4-5.9,1.4H180.2z M167.7,35.2v6.2h12.5v-6.2H167.7z M180.2,48.9v-6.1
			h-12.5v6.1H180.2z"/>
		<path class="st0" d="M213,28.9c-0.1,0.4-0.5,0.8-1.5,1v28c-0.1,0.5-2.9,2-5.7,2h-1.3v-24c-1.5,1.5-3.1,2.8-4.8,4l-0.5-0.3
			c3.5-6.2,7.1-16,8.5-25.3l9.7,2.8c-0.2,0.6-0.8,1-2,1c-1.4,3.8-3,7.2-4.9,10.1L213,28.9z M239.9,27.5c0,0,3.9,3.1,6.1,5.2
			c-0.1,0.5-0.7,0.8-1.4,0.8h-17.2c-0.7,2.4-1.3,4.8-1.9,6.6h7.5l3.9-3.8l6.5,6.2c-0.4,0.5-0.9,0.6-2,0.7c-2.2,2.2-5.6,4.8-8.8,7
			c7.6,3.8,5.9,10.5,0.7,9.3c-3.4-4.3-10.4-9-16-11.2l0.3-0.5c5.4-0.2,9.6,0.4,12.7,1.4c1.1-2.5,2.2-5.5,2.9-7.8h-7.8l-2.4,2.9
			l-6.3-3.6c0.4-0.4,1-0.8,1.7-1.2c0.6-1.7,1.2-3.8,1.9-6h-8.2l-0.4-1.3h8.9c0.7-2.5,1.4-5.2,2.1-7.8h-7.8l-0.4-1.3h8.5
			c0.9-3.6,1.6-6.9,1.9-8.9l8.7,1.8c-0.2,0.6-0.7,1.2-2,1.2c-0.4,1.6-0.9,3.6-1.5,6h4.2l3.2-4.3c0,0,3.6,2.9,5.8,4.8
			c-0.1,0.5-0.6,0.8-1.3,0.8h-12.1c-0.7,2.5-1.3,5.2-2.1,7.8h8.8L239.9,27.5z"/>
	</g>
</g>
<g>
	<path class="st1" d="M94.5,93.1h-4.2L84.7,76h3.9l3.8,12h0l3.9-12h3.9L94.5,93.1z"/>
	<path class="st1" d="M116.1,76h3.8v17.1h-3.8V76z"/>
	<path class="st1" d="M137.4,76h7.4c4.4,0,7.8,2.8,7.8,8.5c0,5-2.5,8.7-7.8,8.7h-7.4V76z M141.1,90h3.4c2.2,0,4.3-1.3,4.3-5.1
		c0-3.5-1.2-5.7-4.9-5.7h-2.7V90z"/>
	<path class="st1" d="M172.9,89.9h9.7v3.2h-13.3V75.9h12.5v3.2h-8.9V83h7.8v3.3h-7.8V89.9z"/>
	<path class="st1" d="M207.3,93.3c-4.9,0-8.9-4-8.9-8.9c0-4.9,4-8.9,8.9-8.9c4.9,0,8.9,4,8.9,8.9C216.2,89.4,212.2,93.3,207.3,93.3z
		 M202.1,84.5c0,2.9,2.4,5.2,5.2,5.2c2.9,0,5.2-2.4,5.2-5.2s-2.3-5.3-5.2-5.3C204.5,79.2,202.1,81.6,202.1,84.5z"/>
</g>
</svg>
